<svg xmlns="http://www.w3.org/2000/svg" viewBox="0 0 1336.96 415.74" preserveAspectRatio="none"><defs></defs><g id="Layer_2" data-name="Layer 2"><g id="Layer_1-2" data-name="Layer 1"><polygon id="I" class="cls-1" points="723.22 184.55 765.49 184.55 805.13 51.94 762.86 51.94 723.22 184.55" stroke="none" stroke-width="1px" stroke-linecap="butt" stroke-dasharray="none" stroke-miterlimit="4" fill="rgb(255, 255, 255)"></polygon><polygon class="cls-1" points="1033.81 80.95 1042.22 51.94 985.78 51.94 943.98 51.94 943.51 51.94 903.87 184.55 946.14 184.55 962 131.5 1002.67 131.5 1011.08 102.5 970.67 102.5 977.11 80.95 1033.81 80.95" stroke="none" stroke-width="1px" stroke-linecap="butt" stroke-dasharray="none" stroke-miterlimit="4" fill="rgb(255, 255, 255)"></polygon><polygon class="cls-1" points="920.43 80.95 928.85 51.94 864.12 51.94 824.8 51.94 821.85 51.94 782.21 184.55 782.76 184.55 824.48 184.55 886.81 184.55 895.22 155.54 833.15 155.54 840.33 131.5 902.55 131.5 910.97 102.5 849 102.5 855.45 80.95 920.43 80.95" stroke="none" stroke-width="1px" stroke-linecap="butt" stroke-dasharray="none" stroke-miterlimit="4" fill="rgb(255, 255, 255)"></polygon><polygon class="cls-1" points="617.94 51.94 567.38 51.94 514.14 96.06 527.33 51.94 485.06 51.94 445.42 184.55 487.69 184.55 507.51 118.24 507.16 120.73 528.86 184.55 582.73 184.55 553.65 102.5 617.94 51.94" stroke="none" stroke-width="1px" stroke-linecap="butt" stroke-dasharray="none" stroke-miterlimit="4" fill="rgb(255, 255, 255)"></polygon><g id="R"><path class="cls-1" d="M739.61,90.06a42.86,42.86,0,0,0,.93-4.7c2.71-19.23-9.25-34.25-28.29-34.25H630.19l-37.74,134h38.82l13.16-46.74h27.75c12.35,0-.88,47-.88,47l41.85-.27a88.63,88.63,0,0,1-.31-18.7q1.49-14,3-28c1-9.35-8.72-12.27-8.72-12.27C722.2,120.26,735.43,106.28,739.61,90.06ZM661,80.49c1.14-.11,2.48-.17,4-.17h21.72c7.8,0,12.6,6.16,11.36,14-.1.63-.25,1.28-.42,1.94-2.42,8.78-11.3,16-19.73,16H656.26c-1.81,0-3.38,0-4.72-.11Z" stroke="none" stroke-width="1px" stroke-linecap="butt" stroke-dasharray="none" stroke-miterlimit="4" fill="rgb(255, 255, 255)"></path></g><polygon class="cls-1" points="597.83 325.05 613.63 225.28 572.92 225.28 552.7 352.99 553.23 352.99 593.4 352.99 653.43 352.99 657.61 325.05 597.83 325.05" stroke="none" stroke-width="1px" stroke-linecap="butt" stroke-dasharray="none" stroke-miterlimit="4" fill="rgb(255, 255, 255)"></polygon><path id="O" class="cls-1" d="M1169.05,222.89c-34-.34-66.12,29.28-71.66,66.14s17.59,67,51.64,67.38,66.11-29.27,71.64-66.14S1203.09,223.23,1169.05,222.89Zm19,67.09c-2.82,17.8-18.3,32.23-34.56,32.23s-27.16-14.43-24.34-32.23,18.28-32.24,34.56-32.24S1190.92,272.17,1188.1,290Z" stroke="none" stroke-width="1px" stroke-linecap="butt" stroke-dasharray="none" stroke-miterlimit="4" fill="rgb(255, 255, 255)"></path><polygon class="cls-1" points="982.45 225.28 952.04 225.28 911.34 225.28 882.25 225.28 878.08 253.22 906.91 253.22 891.11 352.99 931.82 352.99 947.62 253.22 978.28 253.22 982.45 225.28" stroke="none" stroke-width="1px" stroke-linecap="butt" stroke-dasharray="none" stroke-miterlimit="4" fill="rgb(255, 255, 255)"></polygon><g id="R-2" data-name="R"><path class="cls-1" d="M1099.15,262.67a38.21,38.21,0,0,0,.26-4.5c0-18.38-13.44-32.74-31.65-32.74H989.32l-18.08,128.1h37.11l6.31-44.68h26.52c11.81,0,5.47,44.94,5.47,44.94l40-.26a88.17,88.17,0,0,1-2.81-17.87q-.46-13.41-.94-26.81c-.3-8.94-10-11.73-10-11.73A43.41,43.41,0,0,0,1099.15,262.67Zm-76.42-9.15c1.08-.11,2.35-.16,3.83-.16h20.77c7.46,0,12.88,5.89,12.74,13.42a17,17,0,0,1-.14,1.85c-1.13,8.4-8.65,15.27-16.71,15.27h-20.76c-1.73,0-3.24,0-4.53-.11Z" stroke="none" stroke-width="1px" stroke-linecap="butt" stroke-dasharray="none" stroke-miterlimit="4" fill="rgb(255, 255, 255)"></path></g><g id="b"><path class="cls-1" d="M766,256.48a27.77,27.77,0,0,0,.36-4.4c0-15.09-13-26.8-30.82-26.8h-78L637.34,353h25.75l.08,0H720a41.46,41.46,0,0,0,38.31-25.23,39.9,39.9,0,0,0,2.72-9.9,37.54,37.54,0,0,0,.35-5c0-13.23-7.38-24.23-18.68-28.86C754.76,278.7,764.09,268.34,766,256.48ZM723,311.43c-1.24,6.42-9.19,11.68-17.68,11.68H683.41c-1.63,0-3.08,0-4.34-.06L682.73,300h0a51.6,51.6,0,0,1,5.16-.21h21.87c7.74,0,13.36,4.37,13.36,10A8.07,8.07,0,0,1,723,311.43Zm4-47.28c-1.16,6.3-8.66,11.45-16.68,11.45H689.65c-1.11,0-2.12,0-3,0l3.61-22.75c1-.06,2.25-.1,3.66-.1h20.64c7.31,0,12.61,4.28,12.61,9.8A8.41,8.41,0,0,1,727,264.15Z" stroke="none" stroke-width="1px" stroke-linecap="butt" stroke-dasharray="none" stroke-miterlimit="4" fill="rgb(255, 255, 255)"></path></g><path id="a" class="cls-1" d="M861.62,225.28H823.35L748.74,353h40.7l9.34-18.21H841.1L842.39,353h39.48ZM813,307.08l23-44.74,3.18,44.74Z" stroke="none" stroke-width="1px" stroke-linecap="butt" stroke-dasharray="none" stroke-miterlimit="4" fill="rgb(255, 255, 255)"></path><g id="S"><path class="cls-1" d="M1217.08,313h37.12c1.42,10.21,8.4,12.07,21,12.07q14.67,0,15.9-7.8a6.17,6.17,0,0,0-2.38-6.36q-3-2.26-11.47-4-32.31-6.37-40.14-16.69t-5.63-24.22q2.85-17.92,18.32-29.8t41-11.88c25.8,0,41.2,13.61,46.21,34.33l-33.74,3.25c-2-8.47-8.11-9.46-18.31-9.46q-12.72,0-14,7.88a5.33,5.33,0,0,0,2,5.48q2.58,2,10.55,3.71,22,4.8,31,8.5a27.83,27.83,0,0,1,14,12.66q5,9,3,21.13-3,19.22-20.52,31.15t-42.81,11.93C1237.25,354.82,1220.24,338.71,1217.08,313Z" stroke="none" stroke-width="1px" stroke-linecap="butt" stroke-dasharray="none" stroke-miterlimit="4" fill="rgb(255, 255, 255)"></path></g><polygon class="cls-1" points="534.47 224.09 511.24 224.09 488.84 224.09 389.72 355.38 435.35 355.38 505.93 261.89 492.78 355.38 534.62 355.38 553.09 224.09 534.47 224.09" stroke="none" stroke-width="1px" stroke-linecap="butt" stroke-dasharray="none" stroke-miterlimit="4" fill="rgb(255, 255, 255)"></polygon><path class="cls-2" d="M298.33,315.55l-.32-.13-6,22.68H26.58l24.75-93.92,9.91-37.61A55.88,55.88,0,0,1,51.6,204,8.77,8.77,0,0,1,48.53,202a7.67,7.67,0,0,1-2.4-6.71h0c.44-2.86,2.46-5.36,3.91-7.18.58-.72,1.17-1.46,1.72-2.22a10.12,10.12,0,0,0,1.58-4.51c.43-2.4,1-5.67,4.49-7.47,2.62-1.36,5.18-.69,6.88-.25.35.09.84.22,1.17.28a6,6,0,0,0,.31-.6,15.09,15.09,0,0,1,5.5-6.43L81,131.61h0l6-22.8h0L96.9,71.25h24.89c-.63-1.21-1.33-2.42-2.11-3.64C114.11,58.86,110,57,107.2,50.76H81.1L80,54.86,73.14,81l-8,30.38L42.2,198.42l-1.87,7.11h0L29.91,245.07,0,358.59H307.82L315.89,328C309.48,321.14,304.41,318.06,298.33,315.55ZM59.9,193.63l.11.08h0ZM155.1,50.76a185.12,185.12,0,0,1,17.21,20.49h190l-24.48,92.88-.14.55-5.48,20.78h0l-12.59,47.79-5.52,20.92a80.21,80.21,0,0,1,17.09,15.56l8.57-32.5,12.29-46.68,3.13-11.88.36-1.35L388.93,50.76Z" stroke="none" stroke-width="1px" stroke-linecap="butt" stroke-dasharray="none" stroke-miterlimit="4" fill="rgb(241, 91, 39)"></path><path class="cls-1" d="M355,308.36c-3-5.65-6.27-11-9.42-16.24l-.22-.37c-2.19-3.64-4.27-7.08-6.27-10.59a83.65,83.65,0,0,0-7.83-11.42,80.21,80.21,0,0,0-17.09-15.56,140.69,140.69,0,0,0-21.09-11.33c-5-2.32-9.4-4.33-12.33-6.53-7.67-5.78-17.61-21.43-22.85-30.25a11.63,11.63,0,0,1,2.91-.23c3.14.23,5.86.51,8.26.76a68.34,68.34,0,0,0,10.1.59,16.58,16.58,0,0,0,6.95-1.76c3.22-1,19.56,4.95,29.71,13.61a5,5,0,0,0,5.37.64,5.16,5.16,0,0,0,2.94-4.62v-.2a39.16,39.16,0,0,0-13.8-28.44,47.83,47.83,0,0,0-10.12-6.58c-1-3.5-3.76-6.74-7.92-9.29-6.91-4.23-19.09-7-32.53-2-9.53,3.52-24.27-11.8-34-25.55-1.69-2.39-3.23-4.73-4.56-6.92-3.1-6-19.87-37.77-39.21-64.81a235.87,235.87,0,0,0-16.21-20.49c-8.29-9.23-16.5-16.18-23.83-18.64C115.16,23.12,45.53,3.93,31.84.17a5.17,5.17,0,0,0-6.46,5.15A41.52,41.52,0,0,0,35.51,30.19h0c.86,1,1.79,2.05,2.82,3.07h0c6.11,6.12,15.08,12,28.24,16.23A102.52,102.52,0,0,1,80,54.86c11,5.38,17.14,11.38,20.59,16.39,4.11,6,4.37,10.53,4.39,10.92a3.63,3.63,0,0,0,.08.69c.63,3.36,6.7,33.33,24.56,49.46a148.73,148.73,0,0,0,17.79,13.48c9.8,6.58,10.49,7.77,9.2,10-5.26,9.14-6.71,9.81-10.52,10.53l-1.54.29-3.77.7h0l-.89.18-1.26.24c-8.17,1.64-20,4.45-29.2,9-.43-.89-.89-1.91-1.36-3-2.78-6.18-6.23-13.86-13.35-14.63-5.65-.6-7.78,1.67-9.12,4l0,0a4.55,4.55,0,0,1-.48,0,22.56,22.56,0,0,0-13.41,3.72,15.09,15.09,0,0,0-5.5,6.43,6,6,0,0,1-.31.6c-.33-.06-.82-.19-1.17-.28-1.7-.44-4.26-1.11-6.88.25-3.46,1.8-4.06,5.07-4.49,7.47a10.12,10.12,0,0,1-1.58,4.51c-.55.76-1.14,1.5-1.72,2.22-1.45,1.82-3.47,4.32-3.91,7.18h0a7.67,7.67,0,0,0,2.4,6.71A8.77,8.77,0,0,0,51.6,204a55.88,55.88,0,0,0,9.64,2.62c3.32.68,7.41,1.43,12.44,2.33l1.15.2.26.05c9,1.59,19.23,3.39,22.82,5,.86.38,2,.94,3.43,1.61,11.3,5.4,39,18.61,66.53,18.61a76.43,76.43,0,0,0,11.9-.89c.63-.1,1.27-.21,1.9-.33,1.14-.19,2.29-.41,3.43-.65,1.47,2.47,3.19,5.13,5.1,7.91,1,1.43,2,2.9,3.07,4.38,1.83,2.56,3.78,5.18,5.8,7.8l0,0C210,266.8,222.89,281,230,286.07c10.34,7.36,38.23,18,56.69,25,4.92,1.88,8.85,3.37,11.3,4.37l.32.13c6.08,2.51,11.15,5.59,17.56,12.43a165.47,165.47,0,0,1,13.72,17.42c5.85,8.3,10,26.27,13.34,40.71,4.77,20.65,6.95,29.05,13.05,29.61a4.87,4.87,0,0,0,.54,0c4.52,0,6.87-5.38,7.77-7.46a4.43,4.43,0,0,0,.17-.47C377.81,361.9,368,332.56,355,308.36Zm-60-123.23,1.45-.72A16,16,0,0,0,299,185.9c.7.32,1.37.65,2,1l.7.37.85.47.66.38.63.38.62.39.57.37c.19.12.37.24.55.38s.46.32.69.49a8.05,8.05,0,0,1,.66.49c.44.33.85.67,1.26,1l.39.33.62.56.59.56c.2.19.4.39.58.58s.41.42.6.63l.41.46.15.17.25.3c.1.12.2.23.29.35l.14.17.09.11.36.47c.23.31.45.62.67.94.11.16.22.31.32.47l.3.47c.2.31.39.63.55.94s.36.63.51.94c.26.5.5,1,.71,1.51a4.4,4.4,0,0,1,.21.5.37.37,0,0,1,.05.11c.1.22.18.45.26.67s.23.61.32.91.16.49.23.73.08.25.11.38c.13.42.24.84.33,1.25l.12.52c.11.51.21,1,.29,1.5s.15.93.2,1.38c0,.21.05.42.07.62s0,.09,0,.14l0,.28v0c.09,1,.15,1.93.18,2.78-9.1-7.18-23.2-13.5-30.72-13.86-.1-.67-.19-1.3-.25-1.89A25.19,25.19,0,0,1,287,194c0-.14,0-.27,0-.4l0-.44c0-.14,0-.27,0-.4a1.27,1.27,0,0,1,0-.28c0-.18,0-.34.07-.5a5.16,5.16,0,0,1,.15-.67,5.51,5.51,0,0,1,.32-1c.82-1.89,4-3.57,6.64-4.86ZM189.06,223.55c-1.29.34-2.58.65-3.87.94s-2.63.56-3.93.8c-.9.17-1.8.33-2.7.47-28.73,4.49-61.52-11.16-73.86-17-1.49-.71-2.71-1.29-3.61-1.7-3.27-1.46-9.41-2.78-16.54-4.1-2.6-.48-5.33-1-8.1-1.45-3.17-.56-7-1.23-10.54-1.92L63.23,199c-1.06-.22-2.08-.44-3-.66a8.42,8.42,0,0,1,1.29-3.49,4.66,4.66,0,0,1,.43-.59c2.72-3.27.95-5.14,3.66-8.41A4.54,4.54,0,0,1,67,184.67c2.2-1.11,4.47.59,8.08-2.81,4.39-4.14,4.19-9.61,10.45-9.15s8,2.27,11.61-3.05A49.79,49.79,0,0,1,101,177a37.87,37.87,0,0,0,3.44,6.59,4.93,4.93,0,0,0,6.41,1.28c6.61-3.73,15.82-6.4,23.5-8.18,4.85-1.13,9.08-1.91,11.67-2.38l1.59-.3c7.35-1.4,10.26-4.63,15.82-14.31l.25-.44a34.41,34.41,0,0,0,3-6.53,1.72,1.72,0,0,0,.07-.21A4.32,4.32,0,0,0,167,151v-.11h0c0-3.34-.06-5.1-.66-6.19-4-7.18-30.27-19.6-34.23-34.28-4.2-15.61-4-27.24-10.28-39.18-.63-1.21-1.33-2.42-2.11-3.64C114.11,58.86,110,57,107.2,50.76c-1.36-3-2.44-7-3.27-13.24-.07-.51-.13-1.05-.2-1.6-.28-2.4-.51-4.94-.68-7.56,14.42,4.21,27.7,8.23,36.4,11.15,4.66,1.57,10,5.59,15.65,11.25a185.12,185.12,0,0,1,17.21,20.49c12.39,16.76,24.79,37.16,34.17,54,2.93,5.27,5.57,10.19,7.82,14.53l.06.1.1.17c2.47,4.08,23,36.82,42.35,36.82a16.24,16.24,0,0,0,5.63-1c10.83-4,20.4-1.91,25.76,1.36,2.67,1.63,4,3.36,4.43,4.63-3.32,1.63-7.22,3.67-8.61,6.88a11.72,11.72,0,0,0-.81,3,25.09,25.09,0,0,0,.05,6.41,4.91,4.91,0,0,0-.7.3c-2.46,1.28-5.46,1.1-11.74.46l-1-.1c-1.5-.15-3.13-.32-4.91-.48-1.13-.11-2.31-.21-3.57-.3a23.88,23.88,0,0,0-7.66,1A89.09,89.09,0,0,0,244,202.4h0c-4,1.58-8.43,3.51-13.36,5.65l-.17.07c-11.65,5.07-25.5,11.09-39.3,14.87ZM354.93,359c-6.68,3.47-15.43-32.89-32.44-47.29-.6-.51-1.24-1-1.93-1.53a93.37,93.37,0,0,0-14-8.21c-1.45-.72-2.95-1.43-4.48-2.15-22.65-10.54-53.56-20.48-64.59-27.62a168,168,0,0,1-15.39-12c-7.8-6.65-16.27-14.41-22.94-20.64,0,0,0,0,0,0-.59-.83-1.17-1.65-1.73-2.47-1.6-2.3-3.07-4.5-4.36-6.56,14.37-3.92,28.52-10.08,40.45-15.27,3.6-1.56,7.12-3.1,10.42-4.47,2.19-.91,4.27-1.74,6.21-2.45,5.14,8.8,16.54,27.15,25.87,34.18,3.61,2.72,8.32,4.88,13.77,7.39,6.91,3.18,14.67,6.75,22.23,12.29a70.83,70.83,0,0,1,16.68,17.12c1.23,1.78,2.43,3.68,3.58,5.69,1,1.81,2.11,3.64,3.19,5.46s2.12,3.54,3.17,5.28c2.22,3.69,4.46,7.4,6.61,11.18,7.58,13.22,14.31,27.35,16.79,44.81C359.66,355.06,357.14,357.89,354.93,359Z" stroke="none" stroke-width="1px" stroke-linecap="butt" stroke-dasharray="none" stroke-miterlimit="4" fill="rgb(255, 255, 255)"></path><path class="cls-2" d="M318.17,213.37c-9.1-7.18-23.2-13.5-30.72-13.86-.1-.67-.19-1.3-.25-1.89A25.19,25.19,0,0,1,287,194c0-.14,0-.27,0-.4l0-.44c0-.14,0-.27,0-.4a1.27,1.27,0,0,1,0-.28c0-.18,0-.35.07-.5a5.16,5.16,0,0,1,.15-.67,5.51,5.51,0,0,1,.32-1c.82-1.89,4-3.57,6.64-4.86l.64-.31,1.45-.72A16,16,0,0,0,299,185.9c.7.32,1.37.65,2,1l.7.37.85.47.66.38.63.38.62.39.57.37.55.38c.23.15.46.32.69.49s.45.32.66.49c.44.33.85.67,1.26,1l.39.33.62.56.59.56c.2.19.4.39.58.58s.41.42.6.63l.41.46.15.17.25.3c.1.12.2.23.29.35l.14.17.09.11.36.47c.23.31.45.62.67.94s.42.62.62.94.38.63.55.94.35.63.51.94c.26.5.5,1,.71,1.51a4.4,4.4,0,0,1,.21.5.37.37,0,0,1,.05.11c.09.22.18.45.26.67s.22.61.32.91.16.49.23.73.08.25.11.38c.13.42.24.84.33,1.25l.12.52c.11.51.21,1,.29,1.5s.15.93.2,1.38c0,.21.05.42.07.62s0,.27,0,.4a.43.43,0,0,1,0,.05C318.08,211.59,318.14,212.52,318.17,213.37Z" stroke="none" stroke-width="1px" stroke-linecap="butt" stroke-dasharray="none" stroke-miterlimit="4" fill="rgb(241, 91, 39)"></path><path class="cls-1" d="M285.37,181.87a3,3,0,0,1-3.35,1.74,2.15,2.15,0,0,1-1.25-3.07,2.94,2.94,0,0,1,3.35-1.74A2.16,2.16,0,0,1,285.37,181.87Z" stroke="none" stroke-width="1px" stroke-linecap="butt" stroke-dasharray="none" stroke-miterlimit="4" fill="rgb(255, 255, 255)"></path></g></g></svg>